HIERARCHY
ROOT Hips
{
    OFFSET 0.000000 0.000000 0.000000
    CHANNELS 6 Xposition Yposition Zposition Zrotation Xrotation Yrotation
        JOINT Spine1
        {
            OFFSET -0.000000 23.269398 0.000000
            CHANNELS 3 Zrotation Xrotation Yrotation
            JOINT Neck
            {
                OFFSET -0.000000 18.032967 0.000000
                CHANNELS 3 Zrotation Xrotation Yrotation
                JOINT Head
                {
                    OFFSET -0.000000 13.091072 1.689171
                    CHANNELS 3 Zrotation Xrotation Yrotation
                    End Site
                    {
                        OFFSET -0.000000 16.891708 0.000000
                    }
                }
            }
            JOINT LeftShoulder
            {
                OFFSET 3.336773 14.146137 -0.012206
                CHANNELS 3 Zrotation Xrotation Yrotation
                JOINT LeftArm
                {
                    OFFSET 11.765518 0.000000 0.000000
                    CHANNELS 3 Zrotation Xrotation Yrotation
                    JOINT LeftForeArm
                    {
                        OFFSET 25.163450 0.000000 0.000000
                        CHANNELS 3 Zrotation Xrotation Yrotation
                        JOINT LeftHand
                        {
                            OFFSET 21.783554 0.000000 0.000000
                            CHANNELS 3 Zrotation Xrotation Yrotation
                            End Site
                            {
                                OFFSET 12.668781 0.000000 0.000000
                            }
                        }
                    }
                }
            }
            JOINT RightShoulder
            {
                OFFSET -3.409204 14.146137 -0.012206
                CHANNELS 3 Zrotation Xrotation Yrotation
                JOINT RightArm
                {
                    OFFSET -11.765518 0.000000 0.000000
                    CHANNELS 3 Zrotation Xrotation Yrotation
                    JOINT RightForeArm
                    {
                        OFFSET -25.163450 0.000000 0.000000
                        CHANNELS 3 Zrotation Xrotation Yrotation
                        JOINT RightHand
                        {
                            OFFSET -21.783554 0.000000 0.000000
                            CHANNELS 3 Zrotation Xrotation Yrotation
                            End Site
                            {
                                OFFSET -12.668781 0.000000 0.000000
                            }
                        }
                    }
                }
            }
        }
        JOINT LeftUpLeg
    {
        OFFSET 8.445854 0.000000 0.000000
        CHANNELS 3 Zrotation Xrotation Yrotation
        JOINT LeftLeg
        {
            OFFSET -0.000000 -40.674755 0.000000
            CHANNELS 3 Zrotation Xrotation Yrotation
            JOINT LeftFoot
            {
                OFFSET -0.000000 -37.111794 0.000000
                CHANNELS 3 Zrotation Xrotation Yrotation
                JOINT LeftToeBase
                {
                    OFFSET -0.000000 -5.489805 12.668781
                    CHANNELS 3 Zrotation Xrotation Yrotation
                    End Site
                    {
                        OFFSET -0.000000 0.000000 3.378341
                    }
                }
            }
        }
    }
    JOINT RightUpLeg
    {
        OFFSET -8.445854 0.000000 0.000000
        CHANNELS 3 Zrotation Xrotation Yrotation
        JOINT RightLeg
        {
            OFFSET -0.000000 -40.674755 0.000000
            CHANNELS 3 Zrotation Xrotation Yrotation
            JOINT RightFoot
            {
                OFFSET -0.000000 -37.111794 0.000000
                CHANNELS 3 Zrotation Xrotation Yrotation
                JOINT RightToeBase
                {
                    OFFSET -0.000000 -5.489805 12.668781
                    CHANNELS 3 Zrotation Xrotation Yrotation
                    End Site
                    {
                        OFFSET -0.000000 0.000000 3.378341
                    }
                }
            }
        }
    }
}
MOTION
Frames:    6
Frame Time:    0.008333
9.897421    82.519302    -6.164691    -1.180820    -6.935153    -0.081205    -0.651099    13.071776    0.121142    -0.935170    -0.985647    -3.380099    2.412210    1.071849    -3.941811    -1.064113    8.098552    8.741284    -45.815643    40.805340    -39.565701    6.406675    1.378599    -26.987415    5.850840    2.586406    -6.460429    -1.433176    8.497794    -2.590478    45.758316    42.678024    35.187820    -0.947525    -3.490935    22.520336    -2.871347    -3.376004    2.931868    16.306416    -10.439830    1.877549    -8.798811    33.883526    6.733414    -9.652193    -11.596475    13.526866    -6.853090    -7.495251    3.773565    5.847346    7.811464    5.546868    -1.708442    -1.673277    -2.216195    -2.720052    -2.945229    0.274347    0.649922    0.437830    -2.881867    
9.845832    82.547470    -6.143559    -1.084020    -6.850987    -0.192991    -0.779471    12.916460    0.282072    -0.907109    -0.942843    -3.381014    2.400764    1.221586    -3.941089    -1.092278    8.177213    8.855389    -46.246536    40.639610    -39.241051    6.416687    1.595263    -27.329220    5.743454    2.817516    -6.741685    -1.403314    8.582431    -2.691642    45.950966    42.730156    35.115868    -0.975712    -3.404511    22.268246    -2.886699    -3.282205    2.757088    16.109211    -10.067683    1.675271    -8.541399    32.858337    7.264076    -9.312560    -12.010578    13.922853    -6.363858    -6.844557    3.775348    5.817658    7.721092    5.476312    -1.793825    -1.632392    -2.074047    -2.707623    -2.890627    0.346838    0.654990    0.424777    -2.874897    
9.798375    82.575081    -6.121990    -0.990933    -6.762839    -0.298613    -0.893842    12.881900    0.442896    -0.876850    -0.938582    -3.411371    2.373541    1.271561    -3.965899    -1.111747    8.181294    8.855435    -46.743793    40.375519    -38.885616    6.515784    1.742938    -27.652052    5.552587    3.001019    -7.130040    -1.360777    8.563032    -2.715982    46.197300    42.623634    34.948544    -0.947045    -3.323241    22.071257    -2.879967    -3.205089    2.638533    15.903782    -9.664885    2.088995    -7.820446    31.723116    6.459101    -8.826781    -12.105930    14.940029    -6.229104    -6.606330    3.943517    5.793319    7.644630    5.263139    -1.890472    -1.638047    -1.798333    -2.643253    -2.844763    0.417281    0.610425    0.490864    -2.849189    
9.762129    82.603111    -6.092788    -0.900218    -6.642151    -0.396654    -1.008824    12.699268    0.551851    -0.923141    -0.829236    -3.342618    2.481404    1.360221    -3.918535    -1.130791    8.292133    8.981457    -52.797913    33.903709    -37.560471    3.901943    6.361066    -23.633732    5.866617    6.649048    -10.253676    -1.335784    8.614565    -2.784524    46.369728    42.650311    34.819313    -0.939512    -3.263281    21.961180    -2.854556    -3.142770    2.472548    15.551702    -9.417024    2.365848    -6.916117    30.862238    7.734242    -8.876317    -12.068353    14.185948    -5.420849    -5.184302    4.841652    5.774545    7.521294    5.303036    -2.009414    -1.591218    -1.807973    -2.583385    -2.762195    0.508061    0.311313    0.349677    -1.635825    
9.727248    82.630753    -6.067972    -0.836834    -6.535782    -0.466096    -1.086100    12.518815    0.585465    -0.910027    -0.781075    -3.311803    2.432355    1.446404    -3.880323    -1.134932    8.352288    9.142813    -53.104321    33.652546    -37.466434    3.691996    6.306637    -23.598778    5.285293    6.586893    -10.574854    -1.362405    8.670967    -2.858614    47.193203    42.192638    34.138111    -0.974984    -2.903005    22.169537    -2.705520    -2.763344    2.167266    15.362023    -8.964274    2.410856    -6.397359    29.491861    7.303417    -8.459183    -12.144254    15.158853    -5.199932    -4.910487    4.765116    5.760279    7.447751    5.209369    -2.079941    -1.635797    -1.695020    -2.581749    -2.640816    0.587300    0.320098    0.332295    -1.632391    
9.698563    82.654724    -6.039275    -0.783247    -6.413929    -0.503732    -1.129257    12.333969    0.596451    -0.913328    -0.812914    -3.279499    2.324462    1.594626    -3.834818    -1.175686    8.385201    9.247528    -53.251366    33.577377    -37.105549    3.658680    5.987882    -24.147156    4.435444    6.360564    -10.505958    -1.405439    8.275702    -2.513138    48.211494    42.232437    32.863312    -1.163499    -2.871238    22.261656    -2.554688    -2.686629    1.978166    15.109939    -8.732973    2.441866    -5.722268    28.325199    7.626210    -8.247883    -11.697118    15.407956    -4.540121    -4.580544    3.303897    5.736097    7.383089    5.097712    -2.073570    -1.707076    -1.093690    -2.642841    -2.463799    0.155212    0.346228    0.268547    -1.600256    
